<?xml version="1.0" standalone="no"?>
<!DOCTYPE svg PUBLIC "-//W3C//DTD SVG 20010904//EN"
 "http://www.w3.org/TR/2001/REC-SVG-20010904/DTD/svg10.dtd">
<svg version="1.0" xmlns="http://www.w3.org/2000/svg"
 width="600.000000pt" height="112.000000pt" viewBox="0 0 600.000000 112.000000"
 preserveAspectRatio="xMidYMid meet">

<g transform="translate(0.000000,112.000000) scale(0.100000,-0.100000)"
fill="#000000" stroke="none">
<path d="M531 1043 c-5 -10 -92 -226 -194 -480 l-185 -463 132 0 131 0 24 70
24 70 167 0 166 0 23 -70 22 -70 133 0 134 0 -187 468 c-102 257 -190 473
-194 480 -6 8 -37 12 -97 12 -75 0 -91 -3 -99 -17z m148 -438 c23 -77 44 -148
47 -157 5 -16 -4 -18 -96 -18 -82 0 -101 3 -97 14 3 7 22 69 42 137 42 139 54
174 59 168 2 -2 22 -67 45 -144z"/>
<path d="M2080 941 l0 -120 -52 -3 -53 -3 0 -80 0 -80 53 -3 52 -3 0 -275 0
-274 105 0 105 0 0 274 0 275 53 3 52 3 3 83 3 82 -56 0 -55 0 0 120 0 120
-105 0 -105 0 0 -119z"/>
<path d="M5170 580 l0 -480 105 0 105 0 0 220 c0 168 3 229 14 255 24 58 104
82 165 51 50 -26 55 -51 59 -299 l4 -227 105 0 104 0 -3 277 c-3 268 -4 280
-26 325 -44 89 -125 138 -228 138 -69 0 -119 -16 -159 -52 l-35 -30 0 151 0
151 -105 0 -105 0 0 -480z"/>
<path d="M2779 827 c-108 -31 -211 -124 -249 -225 -30 -79 -30 -205 0 -284 39
-103 142 -196 253 -226 l37 -10 0 106 0 107 -29 16 c-36 21 -71 93 -71 147 0
114 97 198 205 178 43 -8 103 -59 121 -103 32 -76 3 -184 -62 -223 l-34 -22 0
-104 0 -104 28 6 c118 27 232 124 272 231 30 80 30 205 0 285 -29 79 -104 159
-186 199 -53 26 -78 32 -151 35 -53 2 -106 -1 -134 -9z"/>
<path d="M4516 824 c-103 -33 -199 -123 -237 -222 -31 -80 -31 -205 0 -284 29
-75 103 -155 183 -199 61 -33 67 -34 173 -34 100 0 115 2 167 28 94 46 172
137 202 235 7 22 7 22 -101 22 l-109 0 -23 -31 c-28 -38 -76 -59 -136 -59 -57
0 -96 20 -132 66 -39 52 -44 151 -11 208 33 56 68 79 131 84 65 5 126 -22 154
-68 l17 -30 109 0 c108 0 108 0 102 23 -30 102 -113 199 -212 244 -71 33 -203
41 -277 17z"/>
<path d="M1190 548 c0 -243 2 -277 19 -313 45 -99 114 -145 229 -153 88 -6
150 15 187 61 l25 32 0 -37 0 -38 100 0 100 0 0 360 0 360 -104 0 -105 0 -3
-227 c-3 -249 -9 -277 -63 -301 -32 -15 -100 -16 -127 -1 -41 22 -48 64 -48
304 l0 225 -105 0 -105 0 0 -272z"/>
<path d="M3430 548 c0 -243 2 -277 19 -313 45 -99 114 -145 229 -153 88 -6
150 15 187 61 l25 32 0 -37 0 -38 100 0 100 0 0 360 0 360 -104 0 -105 0 -3
-227 c-3 -249 -9 -277 -63 -301 -32 -15 -100 -16 -127 -1 -41 22 -48 64 -48
304 l0 225 -105 0 -105 0 0 -272z"/>
<path d="M2833 554 c-18 -9 -39 -31 -48 -51 -46 -96 53 -194 148 -148 35 16
67 65 67 100 0 34 -32 84 -65 99 -41 20 -61 20 -102 0z"/>
</g>
</svg>
