<svg width="350" height="200" viewBox="0 0 350 200" fill="none" xmlns="http://www.w3.org/2000/svg">
<path fill-rule="evenodd" clip-rule="evenodd" d="M88.1998 149.6H215.6C216.321 149.6 217.023 149.522 217.7 149.375C218.376 149.522 219.079 149.6 219.8 149.6H292.6C298.012 149.6 302.4 145.212 302.4 139.8C302.4 134.388 298.012 130 292.6 130H284.2C278.787 130 274.4 125.612 274.4 120.2C274.4 114.788 278.787 110.4 284.2 110.4H310.8C316.212 110.4 320.6 106.012 320.6 100.6C320.6 95.1877 316.212 90.8001 310.8 90.8001H280C285.412 90.8001 289.8 86.4125 289.8 81.0001C289.8 75.5877 285.412 71.2001 280 71.2001H190.4C195.812 71.2001 200.2 66.8125 200.2 61.4001C200.2 55.9877 195.812 51.6001 190.4 51.6001H110.6C105.187 51.6001 100.8 55.9877 100.8 61.4001C100.8 66.8125 105.187 71.2001 110.6 71.2001H54.5998C49.1874 71.2001 44.7998 75.5877 44.7998 81.0001C44.7998 86.4125 49.1874 90.8001 54.5998 90.8001H89.5998C95.0122 90.8001 99.3998 95.1877 99.3998 100.6C99.3998 106.012 95.0122 110.4 89.5998 110.4H33.5998C28.1874 110.4 23.7998 114.788 23.7998 120.2C23.7998 125.612 28.1874 130 33.5998 130H88.1998C82.7874 130 78.3998 134.388 78.3998 139.8C78.3998 145.212 82.7874 149.6 88.1998 149.6ZM316.4 149.6C321.812 149.6 326.2 145.213 326.2 139.8C326.2 134.388 321.812 130 316.4 130C310.987 130 306.6 134.388 306.6 139.8C306.6 145.213 310.987 149.6 316.4 149.6Z" fill="black" fill-opacity="0.1"/>
<path d="M233.8 169.2H265.199M89.6 169.2H119.636H89.6ZM71.5791 169.2H81.2H71.5791ZM271.779 169.2H275.8H271.779Z" stroke="black" stroke-width="2.5" stroke-linecap="round" stroke-linejoin="round"/>
<path d="M137.2 22.6239L152.74 40.0583M210.14 22.6239L194.6 40.0583L210.14 22.6239ZM173.6 16.6001V40.0583V16.6001Z" stroke="black" stroke-width="2.5" stroke-linecap="round" stroke-linejoin="round"/>
<path fill-rule="evenodd" clip-rule="evenodd" d="M129.917 61.3999H217.566L209.717 73.1737L220.182 81.0229H127.3L139.074 73.1737L129.917 61.3999Z" fill="black" fill-opacity="0.1"/>
<rect x="124.6" y="78.1997" width="99.4" height="105" rx="2" fill="white"/>
<path fill-rule="evenodd" clip-rule="evenodd" d="M131.02 135.608V87.5032C131.02 85.5212 132.644 83.9146 134.648 83.9146L220.015 173.63C220.015 176.272 217.899 178.415 215.29 178.415H135.744C133.135 178.415 131.02 176.272 131.02 173.63V155.752V150.902V135.608ZM131.02 145.994V140.607V145.994Z" fill="black" fill-opacity="0.1"/>
<path d="M126 136.248V83.6394C126 81.4719 127.779 79.7148 129.973 79.7148H220.866C222.294 79.7148 223.453 80.8862 223.453 82.3312V177.83C223.453 180.72 221.136 183.062 218.279 183.062H131.174C128.316 183.062 126 180.72 126 177.83V158.278V152.974M126 147.607V141.715" stroke="black" stroke-width="2.5" stroke-linecap="round"/>
<path d="M128.608 79.7148V64.0165C128.608 62.5715 129.66 61.4001 130.956 61.4001L217.834 61.4001C219.131 61.4001 220.182 62.5715 220.182 64.0165V79.7148" stroke="black" stroke-width="2.5"/>
<path d="M152.81 107.187C155.339 107.187 157.389 105.137 157.389 102.608C157.389 100.079 155.339 98.0293 152.81 98.0293C150.281 98.0293 148.231 100.079 148.231 102.608C148.231 105.137 150.281 107.187 152.81 107.187Z" fill="black" fill-opacity="0.1" stroke="black" stroke-width="2.5" stroke-linecap="round"/>
<path d="M195.981 107.187C198.509 107.187 200.559 105.137 200.559 102.608C200.559 100.079 198.509 98.0293 195.981 98.0293C193.452 98.0293 191.402 100.079 191.402 102.608C191.402 105.137 193.452 107.187 195.981 107.187Z" fill="black" fill-opacity="0.1" stroke="black" stroke-width="2.5" stroke-linecap="round"/>
<path d="M195.327 107.187C195.327 118.747 185.955 128.118 174.395 128.118C162.836 128.118 153.464 118.747 153.464 107.187" stroke="black" stroke-width="2.5" stroke-linecap="round"/>
<path d="M129.996 62.7041L139.206 71.7952C139.756 72.3384 139.762 73.2248 139.219 73.7751C139.125 73.8703 139.018 73.9516 138.901 74.0164L128.608 79.7148" stroke="black" stroke-width="2.5" stroke-linecap="round"/>
<path d="M219.016 62.7988L210.203 71.7875C209.662 72.3396 209.671 73.226 210.223 73.7673C210.315 73.8576 210.419 73.9348 210.533 73.9966L221.015 79.7147" stroke="black" stroke-width="2.5" stroke-linecap="round"/>
</svg>
